<svg width="215" height="224" viewBox="0 0 215 224" fill="none" xmlns="http://www.w3.org/2000/svg">
<g clip-path="url(#clip0)">
<rect width="215" height="224" fill="#E05757"/>
<path d="M59.5 148L82.5 152.5L104 159.5L135 147L190 228.5H124.5L59.5 148Z" fill="url(#paint0_linear)"/>
<path d="M134.328 147L162.5 150.5L209.5 225.5H189C167.247 195.074 155.389 177.821 134.328 147Z" fill="url(#paint1_linear)"/>
<path d="M151.5 59L216 161.5L213 228L148.5 129.5L151.5 59Z" fill="url(#paint2_linear)"/>
<ellipse cx="101.5" cy="112" rx="37.5" ry="44" fill="url(#paint3_linear)"/>
<path d="M152.5 135L155 139.5L162.5 150.5H152.5V135Z" fill="#D65454"/>
<path d="M136.038 148.985C136.038 148.264 135.453 147.679 134.732 147.679H134.456C133.846 147.679 133.292 148.033 133.018 148.579C129.611 155.377 124.954 160.443 119.045 163.779C113.023 167.26 106.642 169 99.9019 169C92.8755 169 86.3509 167.84 80.3283 165.519C74.3057 163.053 69 159.5 64.4113 154.859C59.966 150.073 56.4528 144.271 53.8717 137.454C51.2906 130.637 50 122.733 50 113.74V110.26C50 101.412 51.2906 93.5802 53.8717 86.7634C56.4528 79.9466 59.966 74.2176 64.4113 69.5763C69 64.7901 74.3057 61.1641 80.3283 58.6985C86.3509 56.2328 92.7321 55 99.4717 55C106.785 55 113.381 56.6679 119.26 60.0038C125.023 63.0568 129.604 67.7695 133.003 74.142C133.287 74.674 133.837 75.0153 134.44 75.0153V75.0153C135.322 75.0153 136.038 74.2999 136.038 73.4174V62.0458C136.038 59.8367 137.829 58.0458 140.038 58.0458H148.815C151.024 58.0458 152.815 59.8367 152.815 62.0458V143.763C152.815 148.114 154.751 150.29 158.623 150.29H160C162.209 150.29 164 152.081 164 154.29V161.954C164 164.163 162.209 165.954 160 165.954H152.6C147.725 165.954 143.709 164.359 140.555 161.168C137.543 157.977 136.038 153.916 136.038 148.985V148.985ZM101.623 152.901C106.642 152.901 111.23 151.958 115.389 150.073C119.691 148.187 123.347 145.504 126.358 142.023C129.37 138.542 131.736 134.408 133.457 129.622C135.177 124.691 136.038 119.252 136.038 113.305V110.695C136.038 104.893 135.177 99.5992 133.457 94.813C131.736 89.8817 129.298 85.6756 126.143 82.1947C123.132 78.7137 119.475 76.0305 115.174 74.145C111.015 72.1145 106.498 71.0992 101.623 71.0992C96.6038 71.0992 92.0151 72.042 87.8566 73.9275C83.6981 75.813 80.0415 78.4962 76.8868 81.9771C73.8755 85.313 71.5094 89.4466 69.7887 94.3779C68.0679 99.1641 67.2075 104.458 67.2075 110.26V113.74C67.2075 126.069 70.3623 135.714 76.6717 142.676C83.1245 149.492 91.4415 152.901 101.623 152.901Z" fill="white"/>
</g>
<defs>
<linearGradient id="paint0_linear" x1="124.75" y1="147" x2="124.75" y2="228.5" gradientUnits="userSpaceOnUse">
<stop stop-color="#C64A4A"/>
<stop offset="0.828125" stop-color="#C64A4A" stop-opacity="0"/>
</linearGradient>
<linearGradient id="paint1_linear" x1="171.25" y1="147" x2="171.25" y2="225.5" gradientUnits="userSpaceOnUse">
<stop stop-color="#BD4646"/>
<stop offset="0.848958" stop-color="#BD4646" stop-opacity="0"/>
</linearGradient>
<linearGradient id="paint2_linear" x1="181.5" y1="59" x2="181.5" y2="228.5" gradientUnits="userSpaceOnUse">
<stop stop-color="#C44D4D"/>
<stop offset="1" stop-color="#DE5555" stop-opacity="0"/>
</linearGradient>
<linearGradient id="paint3_linear" x1="72" y1="74.5" x2="113" y2="129.5" gradientUnits="userSpaceOnUse">
<stop stop-color="#BD4F4F"/>
<stop offset="1" stop-color="#BD4F4F" stop-opacity="0"/>
</linearGradient>
<clipPath id="clip0">
<rect width="215" height="224" fill="white"/>
</clipPath>
</defs>
</svg>
