<svg width="424" height="418" viewBox="0 0 424 418" fill="none" xmlns="http://www.w3.org/2000/svg">
<rect width="424" height="418" fill="#F9F9F9"/>
<path d="M226.529 291.118C226.129 291.118 225.766 291.36 225.606 291.727C219.427 305.938 210.838 316.092 199.839 322.189C188.683 328.063 175.669 331 160.794 331C146.85 331 133.68 328.372 121.285 323.116C109.2 317.861 98.5093 310.132 89.213 299.929C79.9167 289.727 72.4796 277.361 66.9019 262.83C61.634 248.3 59 231.76 59 213.21V205.79C59 187.55 61.634 171.164 66.9019 156.634C72.1698 142.103 79.2969 129.737 88.2833 119.534C97.2698 109.332 107.651 101.603 119.426 96.3473C131.511 90.7824 144.371 88 158.006 88C174.429 88 187.599 90.7824 197.515 96.3473C207.58 101.825 215.544 110.297 221.406 121.765C221.578 122.102 221.924 122.317 222.303 122.317H229.052C229.604 122.317 230.052 121.869 230.052 121.317V95.4924C230.052 94.9401 230.5 94.4924 231.052 94.4924H287.619C288.171 94.4924 288.619 94.9401 288.619 95.4924V254.947C288.619 264.221 292.802 268.859 301.169 268.859H307.079C308.032 268.859 308.472 270.106 307.779 270.76C293.778 283.971 295.197 308.084 308.313 322.739C308.91 323.406 308.451 324.508 307.556 324.508H270.026C259.49 324.508 250.814 321.416 243.996 315.233C237.71 309.259 234.46 301.555 234.246 292.119C234.234 291.567 233.787 291.118 233.235 291.118H226.529ZM173.809 275.351C190.852 275.351 204.487 269.786 214.713 258.656C224.939 247.218 230.052 231.76 230.052 212.282V206.718C230.052 187.24 224.939 171.937 214.713 160.807C204.487 149.368 190.852 143.649 173.809 143.649C156.766 143.649 143.131 149.368 132.906 160.807C122.68 171.937 117.567 187.24 117.567 206.718V212.282C117.567 231.76 122.68 247.218 132.906 258.656C143.131 269.786 156.766 275.351 173.809 275.351Z" fill="#E05757"/>
<path d="M364 296C364 300.07 363.186 303.937 361.558 307.6C360.133 311.06 358.098 314.112 355.453 316.758C352.807 319.2 349.653 321.133 345.989 322.558C342.53 324.186 338.867 325 335 325C330.93 325 327.165 324.186 323.705 322.558C320.246 321.133 317.193 319.2 314.547 316.758C311.902 314.112 309.765 311.06 308.137 307.6C306.712 303.937 306 300.07 306 296C306 291.93 306.712 288.165 308.137 284.705C309.765 281.042 311.902 277.989 314.547 275.547C317.193 272.902 320.246 270.867 323.705 269.442C327.165 267.814 330.93 267 335 267C338.867 267 342.53 267.814 345.989 269.442C349.653 270.867 352.807 272.902 355.453 275.547C358.098 277.989 360.133 281.042 361.558 284.705C363.186 288.165 364 291.93 364 296Z" fill="#E05757"/>
</svg>
